<svg xmlns="http://www.w3.org/2000/svg" viewBox="0 0 24 24" fill="currentColor">
  <path d="M6.5 5.25 5.25 3.5 6.31 2.44 8.56 5.25H15.44l2.25-2.81L18.75 3.5 17.5 5.25H18c1.24 0 2.25 1.01 2.25 2.25v9.5c0 1.24-1.01 2.25-2.25 2.25H6c-1.24 0-2.25-1.01-2.25-2.25V7.5c0-1.24 1.01-2.25 2.25-2.25h.5zM6 8.25a.75.75 0 0 0-.75.75v7.5c0 .41.34.75.75.75h12c.41 0 .75-.34.75-.75V9a.75.75 0 0 0-.75-.75H6zm3.75 1.5a1.25 1.25 0 1 1 0 2.5 1.25 1.25 0 0 1 0-2.5zm4.5 0a1.25 1.25 0 1 1 0 2.5 1.25 1.25 0 0 1 0-2.5z" />
</svg>
