<svg xmlns="http://www.w3.org/2000/svg" viewBox="0 0 24 24" fill="currentColor">
  <path d="M22.282 9.821a5.985 5.985 0 0 0-.516-4.938 6.046 6.046 0 0 0-6.51-2.901A6.065 6.065 0 0 0 4.981 4.18a5.985 5.985 0 0 0-3.998 2.9 6.046 6.046 0 0 0 .742 7.097 5.98 5.98 0 0 0 .511 4.938 6.051 6.051 0 0 0 6.514 2.901A5.985 5.985 0 0 0 13.714 24a6.055 6.055 0 0 0 5.772-4.205 5.99 5.99 0 0 0 3.997-2.9 6.055 6.055 0 0 0-.747-2.077 5.995 5.995 0 0 0 .747-4.997zM13.714 22.05a4.476 4.476 0 0 1-2.876-1.041l.141-.081 4.779-2.758a.795.795 0 0 0 .392-.681v-6.737l2.02 1.168a.071.071 0 0 1 .038.052v5.582a4.504 4.504 0 0 1-4.494 4.496zM3.167 18.019a4.485 4.485 0 0 1-.563-3.024l.142.085 4.783 2.759a.77.77 0 0 0 .78 0l5.843-3.369v2.332a.08.08 0 0 1-.033.062L9.74 19.95a4.5 4.5 0 0 1-6.573-4.93zM2.34 7.896a4.485 4.485 0 1 1 7.465-1.445l-.141.08-4.778 2.758a.795.795 0 0 0-.393.681v6.736l-2.02-1.168a.07.07 0 0 1-.037-.054V7.896zm15.227 3.548-5.843-3.369 2.898-1.674 2.898 1.674v3.348l-2.898 1.674-2.898-1.674z" />
</svg>
