<svg xmlns="http://www.w3.org/2000/svg" viewBox="0 0 24 24">
  <rect width="24" height="24" rx="5.5" fill="#00BC6C" />
  <path
    fill="#fff"
    d="M12 4.2c.55.9.03 2.36-1.11 2.82-2.16.89-3-1.3-3-1.3-.24-.55-.73-1.5-1.34-1.5-.2 0-.5 0-.94.84-.23.44-.43 1.19-.62 1.84l-.09.32c-.37-1.59-.82-3.45-1.54-4.82a5.1 5.1 0 0 1 1.74-1.34A4.9 4.9 0 0 1 8.7 3c1.05 0 2.77.34 4.23 2.23.17.21.32.42.45.65.28.44.52.9.73 1.38l.04.11zM1.2 5.1c-.17-1.3.78-2.56 1.93-2.65 1.8-.16 2.36 1.39 2.46 1.89l.02.14c.07.44.29 1.84.48 2.74.08.4.24 1.01.35 1.42l.03.1c.11.4.23.8.36 1.19.19.55.4 1.09.64 1.61.47.96.93 1.45 1.37 1.45.2 0 .51 0 .96-.88.28-.59.51-1.21.68-1.85.37 1.6.81 3.13 1.5 4.46.2.41.44.79.72 1.16a5.1 5.1 0 0 1-1.74 1.34 4.9 4.9 0 0 1-2.11.46c-1.55 0-3.73-.7-5.34-4a22.4 22.4 0 0 1-1.08-2.82 26.8 26.8 0 0 1-.69-2.66 48.6 48.6 0 0 1-.22-1.11C.39 6.3.27 5.57.22 5.1zm21.75-1.5-.2-.02h-.05c.22.39.42.8.6 1.22l.05.11c.32.76.35 1.61.07 2.39a3.1 3.1 0 0 1-1.55 1.75 2.9 2.9 0 0 1-1.23.28 3.1 3.1 0 0 1-.85-.14c-.3 1.18-.77 2.63-1.2 3.51-.43.88-.93 1.45-1.38 1.45-.19 0-.5 0-.95-.88a10.7 10.7 0 0 1-.68-1.85 38.7 38.7 0 0 1-.4-1.58l-.13-.6c-.41-1.78-.87-3.65-1.66-5.14a8.3 8.3 0 0 0-1.66-2.2 5.1 5.1 0 0 0-1.75-1.34A4.9 4.9 0 0 0 9.1 3c-1.04 0-2.75.34-4.22 2.23.47.22.87.56 1.16.98.31.43.5.93.57 1.46.08.56.26 1.65.47 2.69l.07.34c.13-.34.25-.64.38-.96l.11-.27.13-.29c.24-.55.73-1.5 1.32-1.5.21 0 .51 0 .95.84.3.61.53 1.24.71 1.89.14.51.28 1.05.39 1.59l.1.44c.43 1.88.88 3.69 1.64 5.19.16.32.34.62.55.91.15.22.31.42.48.62 1.27 1.45 2.73 1.8 3.84 1.8 1.55 0 3.74-.7 5.35-4 .82-1.7 1.52-4.21 1.77-5.48.26-1.27.45-2.42.53-3.12.04-.31.02-.62-.05-.92a1.8 1.8 0 0 0-.38-.83 2.1 2.1 0 0 0-.65-.61 2.1 2.1 0 0 0-.83-.3z"
  />
</svg>
