<svg xmlns="http://www.w3.org/2000/svg" viewBox="0 0 24 24" fill="currentColor">
  <path d="M17.523 15.341c-.551 0-.999-.448-.999-.999s.448-.999.999-.999.999.448.999.999-.448.999-.999.999zm-11.046 0c-.551 0-.999-.448-.999-.999s.448-.999.999-.999.999.448.999.999-.448.999-.999.999zm11.404-6.02 1.997-3.459a.416.416 0 0 0-.152-.567.416.416 0 0 0-.567.152l-2.022 3.503C15.59 8.243 13.853 7.681 12 7.681s-3.59.562-5.136 1.729L4.842 5.907a.416.416 0 0 0-.567-.152.416.416 0 0 0-.152.567l1.997 3.459C2.688 11.186.343 14.659.343 18.761h23.314c0-4.102-2.345-7.575-5.776-9.44z" />
</svg>
